<?xml version="1.0" standalone="no"?>
<!DOCTYPE svg PUBLIC "-//W3C//DTD SVG 20010904//EN"
 "http://www.w3.org/TR/2001/REC-SVG-20010904/DTD/svg10.dtd">
<svg version="1.0" xmlns="http://www.w3.org/2000/svg"
 width="704.000000pt" height="704.000000pt" viewBox="0 0 704.000000 704.000000"
 preserveAspectRatio="xMidYMid meet">
<metadata>
Created by potrace 1.11, written by Peter Selinger 2001-2013
</metadata>
<g transform="translate(0.000000,704.000000) scale(0.100000,-0.100000)"
fill="#000000" stroke="none">
<path d="M85 6420 c-30 -8 -49 -22 -68 -50 -16 -23 -17 -217 -17 -2885 0
-2839 0 -2860 20 -2893 11 -18 30 -36 43 -41 12 -4 274 -7 583 -7 628 2 599
-2 632 74 14 34 16 255 16 2329 1 1260 4 2294 7 2298 13 12 66 -120 95 -235 2
-8 13 -46 24 -85 12 -38 23 -78 25 -88 2 -9 6 -21 9 -25 3 -5 7 -19 9 -33 3
-13 17 -63 31 -111 15 -48 29 -95 31 -105 10 -48 148 -520 156 -535 5 -10 9
-23 9 -30 0 -7 23 -92 51 -188 28 -96 60 -206 71 -245 11 -38 24 -81 28 -95 4
-14 13 -45 20 -70 7 -25 15 -52 18 -60 3 -8 7 -24 9 -35 2 -11 6 -27 10 -35 3
-8 7 -19 8 -25 2 -5 10 -35 19 -66 9 -31 19 -65 21 -75 2 -11 18 -64 35 -119
16 -55 32 -109 34 -120 3 -11 19 -67 36 -125 53 -178 61 -204 69 -240 5 -19
13 -47 20 -63 6 -15 13 -38 15 -50 7 -30 40 -148 66 -232 11 -38 23 -77 25
-85 1 -8 22 -80 45 -160 24 -80 46 -158 50 -175 5 -16 25 -86 45 -155 20 -69
37 -129 39 -135 1 -5 8 -30 15 -55 8 -25 14 -49 15 -55 1 -5 10 -35 19 -65 16
-51 117 -403 122 -425 1 -5 4 -17 7 -25 5 -12 29 -96 42 -145 12 -46 44 -87
82 -106 40 -19 59 -20 271 -18 265 1 646 1 923 -1 112 -1 209 3 229 9 79 24
115 71 154 201 54 181 68 228 73 253 2 15 9 39 15 54 6 16 12 35 14 43 2 8 9
35 16 60 7 25 13 50 15 55 1 6 11 42 22 80 24 83 98 345 112 395 5 19 28 98
51 175 23 77 43 151 46 164 2 14 6 28 9 33 3 4 7 17 10 28 6 29 22 84 73 260
17 58 34 118 37 135 3 16 10 35 16 42 6 7 8 13 5 13 -3 0 4 28 14 63 11 34 22
69 24 77 1 8 15 58 30 110 15 52 28 100 29 105 2 6 10 35 20 66 9 31 19 65 21
75 3 11 13 48 24 84 11 36 33 115 51 175 17 61 33 117 37 125 3 8 8 23 10 33
1 10 19 73 39 140 20 67 38 131 41 142 3 11 19 65 35 120 16 55 31 107 33 115
2 8 19 71 39 140 20 69 38 132 40 140 2 8 6 22 9 30 4 8 16 49 27 90 12 41 28
98 36 125 8 28 17 59 19 70 3 11 9 31 14 45 5 14 22 70 37 125 14 55 35 127
45 160 13 46 63 207 74 245 1 3 4 12 8 20 3 8 11 34 17 58 6 25 17 42 25 42 8
0 16 -3 16 -7 1 -5 3 -1037 4 -2294 1 -1258 6 -2300 10 -2315 18 -64 25 -74
64 -90 29 -13 71 -16 206 -14 256 2 616 2 837 0 213 -3 231 1 260 52 11 19 13
572 14 2878 1 1891 -2 2862 -9 2874 -15 31 -40 53 -67 61 -14 4 -500 8 -1082
8 -1141 0 -1095 2 -1147 -53 -36 -39 -58 -94 -91 -230 -17 -69 -38 -152 -46
-185 -9 -33 -17 -67 -19 -75 -2 -8 -35 -141 -75 -295 -79 -310 -78 -308 -84
-332 -2 -10 -34 -135 -71 -278 -37 -143 -69 -268 -70 -278 -2 -9 -6 -21 -9
-25 -3 -5 -8 -24 -11 -43 -3 -19 -14 -63 -24 -99 -11 -36 -22 -78 -26 -95 -4
-16 -9 -37 -11 -45 -5 -24 -61 -237 -85 -325 -11 -44 -23 -87 -24 -95 -2 -8
-8 -30 -14 -47 -5 -18 -8 -33 -5 -33 3 0 0 -8 -5 -18 -6 -11 -12 -30 -15 -43
-5 -26 -69 -274 -91 -354 -8 -27 -16 -61 -19 -75 -3 -14 -30 -119 -61 -235
-30 -115 -57 -219 -59 -230 -3 -11 -6 -22 -7 -25 -1 -3 -3 -9 -4 -15 -1 -5 -5
-22 -9 -36 -4 -14 -9 -32 -10 -40 -2 -8 -5 -21 -9 -29 -5 -14 -32 -121 -42
-165 -7 -34 -57 -219 -62 -235 -3 -8 -7 -24 -9 -35 -5 -29 -10 -48 -17 -65 -4
-8 -9 -26 -11 -40 -10 -52 -56 -223 -61 -228 -10 -10 -42 28 -63 76 -28 63
-36 85 -33 95 0 4 -3 16 -9 27 -5 10 -12 31 -14 47 -2 15 -6 35 -9 43 -7 17
-55 201 -63 240 -3 14 -8 34 -11 45 -4 11 -8 25 -9 30 -1 6 -9 37 -18 70 -19
66 -18 65 -40 150 -8 33 -24 96 -36 140 -12 44 -25 96 -29 115 -10 39 -69 267
-107 409 -14 51 -28 105 -30 119 -3 14 -9 33 -15 44 -5 10 -8 18 -5 18 3 0 -1
21 -9 48 -15 51 -62 226 -75 282 -5 19 -29 114 -55 210 -26 96 -48 183 -50
193 -2 9 -6 21 -9 25 -3 5 -7 19 -10 33 -3 13 -7 34 -10 47 -4 12 -8 30 -10
40 -2 9 -14 53 -25 97 -25 92 -25 93 -41 160 -6 28 -14 57 -17 65 -3 8 -7 20
-8 25 -2 6 -21 82 -45 170 -23 88 -43 167 -45 175 -2 8 -13 49 -24 90 -11 41
-33 127 -50 190 -16 63 -46 176 -66 250 -19 74 -37 144 -39 155 -3 11 -12 47
-21 80 -23 82 -42 159 -50 196 -7 34 -37 114 -52 139 -8 15 -31 35 -51 46 -34
18 -60 19 -611 16 -317 -2 -621 -3 -676 -2 -473 5 -924 5 -940 0z"/>
</g>
</svg>
