<svg width="74" height="20" viewBox="0 0 74 20" fill="none" xmlns="http://www.w3.org/2000/svg">
<path d="M8.00564 10.1492C8.82361 6.99994 9.65898 3.88564 10.4421 0.753843C10.5292 0.386426 10.6858 0.28145 11.0513 0.298946C12.4958 0.316442 13.9577 0.316442 15.4022 0.298946C15.698 0.298946 15.785 0.386426 15.785 0.683859C15.7676 4.81293 15.7676 8.942 15.785 13.0536C15.785 13.386 15.6632 13.4385 15.3847 13.421C14.619 13.4035 13.8532 13.4035 13.0875 13.421C12.7568 13.4385 12.6524 13.3335 12.6524 12.9836C12.6698 9.78181 12.6524 6.56254 12.6524 3.36076C12.6524 3.20329 12.6524 3.04583 12.6524 2.88836C12.635 2.88836 12.6002 2.87087 12.5828 2.87087C12.548 2.99334 12.5132 3.11581 12.4609 3.23829C11.5212 6.47506 10.5814 9.71183 9.65898 12.9661C9.55455 13.3335 9.39792 13.4385 9.03245 13.421C8.14487 13.4035 7.25729 13.4035 6.38711 13.421C6.10865 13.421 5.98682 13.351 5.91721 13.0711C4.97742 9.79931 4.02022 6.52755 3.08043 3.27328C3.04562 3.1508 3.01082 3.02833 2.90639 2.90586C2.90639 3.06332 2.90639 3.20329 2.90639 3.36076C2.90639 6.56254 2.90639 9.78181 2.90639 12.9836C2.90639 13.3335 2.83678 13.456 2.4539 13.4385C1.75776 13.4035 1.06162 13.421 0.365475 13.4385C0.0696142 13.456 0 13.351 0 13.0711C0 8.92451 0 4.79544 0 0.648867C0 0.386426 0.0696143 0.298946 0.330668 0.298946C1.87958 0.316442 3.4285 0.316442 4.97742 0.298946C5.27328 0.298946 5.32549 0.438914 5.3951 0.666363C6.19567 3.72818 7.01364 6.78999 7.8142 9.8693C7.88381 9.95678 7.86641 10.0618 8.00564 10.1492Z" fill="#333333"/>
<path d="M48.6951 11.7943C48.6951 12.0567 48.6951 12.2142 48.6951 12.3717C48.6951 14.7686 48.6951 17.1481 48.6951 19.545C48.6951 19.86 48.6429 19.9999 48.2775 19.9999C47.4769 19.965 46.6763 19.9824 45.8932 19.9999C45.6147 19.9999 45.5625 19.9125 45.5625 19.65C45.5625 13.3339 45.5625 7.00036 45.5625 0.684281C45.5625 0.404344 45.6321 0.299368 45.928 0.316864C46.7459 0.33436 47.5465 0.33436 48.3645 0.316864C48.6603 0.316864 48.7299 0.42184 48.7125 0.701777C48.6951 1.08669 48.7125 1.45411 48.7125 1.82153C48.817 1.89151 48.8692 1.82153 48.904 1.76904C50.5921 -0.173026 53.1331 -0.330491 55.0997 0.579305C57.6928 1.78653 58.8066 3.95605 58.8762 6.75542C58.9284 9.08239 58.1627 11.0769 56.2831 12.5291C54.3687 13.9988 50.975 14.4012 48.904 12.0217C48.8518 11.9343 48.817 11.8993 48.6951 11.7943ZM55.7262 6.89539C55.7262 6.388 55.6914 5.89811 55.5347 5.42572C55.1171 4.166 54.2991 3.2737 52.9764 3.01126C51.5841 2.73132 50.3833 3.11624 49.5131 4.27098C48.5733 5.53069 48.5037 6.94787 48.9388 8.38255C49.5653 10.4646 52.0366 11.4269 53.9162 10.3421C55.2215 9.58978 55.7088 8.34756 55.7262 6.89539Z" fill="#333333"/>
<path d="M26.4879 7.9103C24.9738 7.9103 23.477 7.9103 21.9629 7.9103C21.6671 7.9103 21.6149 7.96278 21.6845 8.26022C22.2066 10.5347 24.8171 11.6894 26.8533 10.4997C27.1666 10.3248 27.4277 10.0798 27.5843 9.76488C27.7061 9.53743 27.8453 9.46745 28.089 9.46745C28.9766 9.48494 29.8642 9.48494 30.7343 9.46745C31.0476 9.46745 31.1346 9.51993 31.0128 9.85236C30.4385 11.4445 29.3943 12.5992 27.8279 13.1416C25.1478 14.0864 22.6243 13.9114 20.4662 11.8469C19.0913 10.5172 18.5518 8.83759 18.5344 6.94801C18.517 4.41108 19.3872 2.29406 21.5975 0.946859C24.9563 -1.08268 30.0208 0.107048 31.239 4.93596C31.4479 5.79327 31.4479 6.66807 31.4305 7.54288C31.4305 7.84031 31.3086 7.8928 31.0302 7.8928C29.5335 7.8928 28.0194 7.9103 26.4879 7.9103ZM25.026 5.6708C25.9832 5.6708 26.9404 5.6533 27.8976 5.6708C28.263 5.6708 28.3849 5.61831 28.263 5.2159C27.8279 3.71124 26.7141 2.83644 25.0956 2.80144C23.4074 2.74896 22.1718 3.67625 21.7367 5.26839C21.6497 5.61831 21.7367 5.68829 22.0674 5.68829C23.0594 5.6708 24.034 5.6708 25.026 5.6708Z" fill="#333333"/>
<path d="M73.9999 6.8605C73.9999 9.9748 72.3292 12.4942 69.5272 13.334C65.7332 14.4888 62.0611 12.6692 61.0168 9.04751C60.1641 6.10817 60.895 2.8189 63.7666 1.01681C67.4214 -1.27518 73.2515 0.421943 73.9477 5.77574C73.9825 6.12566 73.9999 6.49308 73.9999 6.8605ZM70.8673 6.82551C70.8673 6.4231 70.8325 5.91571 70.6584 5.42582C70.2233 4.14861 69.4228 3.25631 68.0653 3.01136C66.673 2.74892 65.507 3.13383 64.6368 4.28858C63.7144 5.5308 63.6448 6.93048 64.0625 8.36516C64.7934 10.8146 67.8738 11.6194 69.7186 9.86982C70.5366 9.065 70.8499 8.05023 70.8673 6.82551Z" fill="#333333"/>
<path d="M37.8869 0.29899C39.5751 0.29899 41.2806 0.29899 42.9688 0.29899C43.282 0.29899 43.3691 0.386471 43.3517 0.683904C43.3343 1.40124 43.3343 2.11858 43.3517 2.81842C43.3517 3.09836 43.282 3.18584 42.9862 3.18584C41.942 3.16835 40.8978 3.18584 39.8535 3.16835C39.5229 3.16835 39.4185 3.23833 39.4185 3.58825C39.4359 6.68506 39.4185 9.79936 39.4359 12.8962C39.4359 13.3336 39.314 13.421 38.8963 13.4035C38.1654 13.3686 37.417 13.3686 36.6861 13.4035C36.3554 13.421 36.2858 13.3161 36.2858 12.9836C36.3032 9.88684 36.2858 6.77254 36.3032 3.67573C36.3032 3.25583 36.2162 3.13335 35.7811 3.15085C34.7717 3.18584 33.7449 3.15085 32.7355 3.16835C32.457 3.16835 32.3526 3.11586 32.37 2.81842C32.3874 2.08359 32.3874 1.36625 32.37 0.631416C32.3526 0.333982 32.4744 0.281494 32.7355 0.281494C34.4758 0.29899 36.1814 0.29899 37.8869 0.29899Z" fill="#333333"/>
</svg>
